<svg width="115" height="17" viewBox="0 0 115 17" fill="none" xmlns="http://www.w3.org/2000/svg">
<g clip-path="url(#clip0_228_33)">
<path d="M1.34796 13.2135C0.969945 13.2135 0.65219 13.0824 0.38922 12.8257C0.126251 12.5635 0.000244141 12.2304 0.000244141 11.8153C0.000244141 11.4002 0.131729 11.0616 0.38922 10.8049C0.646712 10.5482 0.969945 10.4171 1.34796 10.4171C1.72598 10.4171 2.04374 10.5482 2.30671 10.8049C2.56968 11.0616 2.69568 11.4002 2.69568 11.8153C2.69568 12.2304 2.5642 12.569 2.30671 12.8257C2.04374 13.0878 1.72598 13.2135 1.34796 13.2135Z" fill="#D90404"/>
<path d="M8.49194 15.2288H10.4368C10.9354 15.2288 11.3134 15.0595 11.5599 14.7154C11.8119 14.3659 11.9325 13.847 11.9325 13.1534V4.88447H9.29181V3.69929H13.461V13.1534C13.461 13.6777 13.4007 14.1529 13.2747 14.5734C13.1542 14.994 12.9679 15.3544 12.7159 15.6548C12.4639 15.9552 12.1626 16.1737 11.8065 16.3157C11.4504 16.4577 11.0449 16.5287 10.5957 16.5287H8.48099V15.2343L8.49194 15.2288ZM11.9379 2.01165C11.7736 2.01165 11.6859 1.92972 11.6859 1.76041V0.324004C11.6859 0.160155 11.7681 0.0727692 11.9379 0.0727692H13.1377C13.3021 0.0727692 13.3898 0.154694 13.3898 0.324004V1.76041C13.3898 1.92426 13.3076 2.01165 13.1377 2.01165H11.9379Z" fill="#E9ECF1"/>
<path d="M21.9033 13.2298C21.2623 13.2298 20.698 13.126 20.1995 12.9185C19.7009 12.7109 19.2846 12.3996 18.9394 11.9845C18.5888 11.5531 18.3313 11.0287 18.1669 10.4225C18.0026 9.81079 17.9149 9.11716 17.9149 8.34161C17.9149 6.76866 18.2546 5.56164 18.9394 4.72055C19.6242 3.88492 20.6104 3.46983 21.9033 3.46983C22.5717 3.46983 23.1469 3.5736 23.64 3.79207C24.1331 4.00507 24.5439 4.31639 24.8781 4.72601C25.563 5.5671 25.9026 6.76866 25.9026 8.33615C25.9026 9.12809 25.8204 9.83264 25.6506 10.4443C25.4808 11.056 25.2233 11.5749 24.8781 11.99C24.5439 12.3996 24.1276 12.7109 23.6345 12.9185C23.136 13.1315 22.5607 13.2352 21.9088 13.2352L21.9033 13.2298ZM21.9033 11.9354C22.6867 11.9354 23.2784 11.6295 23.6783 11.0233C24.0783 10.4225 24.2755 9.52679 24.2755 8.35253C24.2755 7.17828 24.0783 6.28257 23.6783 5.67087C23.2784 5.07009 22.6867 4.76424 21.9033 4.76424C21.1199 4.76424 20.5391 5.06463 20.1392 5.67087C19.7393 6.27711 19.5366 7.17282 19.5366 8.35253C19.5366 9.53225 19.7393 10.4225 20.1392 11.0233C20.5391 11.6295 21.1253 11.9354 21.9033 11.9354Z" fill="#E9ECF1"/>
<path d="M31.3103 13.2298C30.3461 13.2298 29.5791 12.9622 29.0203 12.4269C28.7518 12.1702 28.5436 11.8698 28.3957 11.5257C28.2478 11.1817 28.1711 10.7611 28.1711 10.275C28.1711 9.2537 28.5217 8.46723 29.2175 7.92653C29.9078 7.39129 30.9268 7.12367 32.28 7.12367H34.3344V6.88335C34.3344 6.52835 34.2851 6.21157 34.192 5.93849C34.0989 5.65995 33.9564 5.43602 33.7701 5.26671C33.5839 5.10286 33.3428 4.97724 33.047 4.89532C32.7457 4.8134 32.4005 4.7697 32.0006 4.7697C31.4746 4.7697 30.9432 4.84617 30.4118 4.99363C29.8749 5.14109 29.3544 5.35956 28.8559 5.64903V4.11977C29.0915 4.03238 29.349 3.945 29.6284 3.85215C29.9133 3.76476 30.1981 3.6883 30.4885 3.62822C30.9925 3.52445 31.502 3.46983 32.0115 3.46983C32.406 3.46983 32.7621 3.49714 33.0853 3.55722C33.4086 3.6173 33.7044 3.70468 33.9838 3.81938C34.2413 3.92861 34.4824 4.07061 34.7125 4.23992C34.9426 4.40923 35.1398 4.60585 35.2987 4.82432C35.4137 4.98271 35.5123 5.15202 35.5835 5.33225C35.6548 5.50702 35.7096 5.6818 35.7479 5.85657C35.8356 6.26073 35.8794 6.87243 35.8794 7.69168V9.59232C35.8903 9.91456 35.9013 10.1931 35.9068 10.4389C35.9068 10.6847 35.9287 10.9086 35.9561 11.1216C35.9835 11.3564 36.0164 11.5749 36.0492 11.777C36.0876 11.9791 36.115 12.1374 36.1424 12.2412C36.1807 12.4105 36.2245 12.5744 36.2738 12.7273C36.3231 12.8802 36.356 12.9676 36.367 12.9949H34.8275C34.8001 12.9294 34.7672 12.8311 34.7234 12.7C34.6796 12.5689 34.6412 12.4269 34.6029 12.274C34.5755 12.1538 34.5481 12.0282 34.5262 11.9026C34.5043 11.777 34.4824 11.6732 34.4714 11.5804C34.3125 11.8589 34.1043 12.1047 33.8523 12.3177C33.6003 12.5307 33.3538 12.7055 33.1072 12.8311C32.8388 12.9676 32.5594 13.0714 32.2636 13.1315C31.9677 13.197 31.65 13.2243 31.3103 13.2243V13.2298ZM31.628 11.9517C32.4663 11.9517 33.1237 11.6568 33.6113 11.0724C34.0989 10.4771 34.3454 9.66879 34.3454 8.65838V8.31976H32.406C31.5185 8.31976 30.8446 8.47269 30.3899 8.784C30.1488 8.94239 29.979 9.14447 29.8694 9.37932C29.7599 9.61417 29.7051 9.88725 29.7051 10.1986C29.7051 10.488 29.7489 10.7393 29.8366 10.9523C29.9242 11.1653 30.0502 11.3455 30.2091 11.493C30.368 11.635 30.5652 11.7497 30.7953 11.8316C31.0254 11.9135 31.2993 11.9572 31.6226 11.9572L31.628 11.9517Z" fill="#E9ECF1"/>
<path d="M42.4312 13.2298C41.7902 13.2298 41.2259 13.126 40.7274 12.9185C40.2288 12.7109 39.8125 12.3996 39.4673 11.9845C39.1167 11.5531 38.8592 11.0287 38.6949 10.4225C38.5305 9.81079 38.4428 9.11716 38.4428 8.34161C38.4428 6.76866 38.7825 5.56164 39.4673 4.72055C40.1521 3.88492 41.1383 3.46983 42.4312 3.46983C43.0996 3.46983 43.6748 3.5736 44.1679 3.79207C44.661 4.00507 45.0719 4.31639 45.4061 4.72601C46.0909 5.5671 46.4306 6.76866 46.4306 8.33615C46.4306 9.12809 46.3484 9.83264 46.1785 10.4443C46.0087 11.056 45.7512 11.5749 45.4061 11.99C45.0719 12.3996 44.6555 12.7109 44.1624 12.9185C43.6639 13.1315 43.0886 13.2352 42.4367 13.2352L42.4312 13.2298ZM42.4312 11.9354C43.2146 11.9354 43.8063 11.6295 44.2063 11.0233C44.6062 10.4225 44.8034 9.52679 44.8034 8.35253C44.8034 7.17828 44.6062 6.28257 44.2063 5.67087C43.8063 5.07009 43.2146 4.76424 42.4312 4.76424C41.6478 4.76424 41.0671 5.06463 40.6671 5.67087C40.2672 6.27711 40.0645 7.17282 40.0645 8.35253C40.0645 9.53225 40.2672 10.4225 40.6671 11.0233C41.0671 11.6295 41.6533 11.9354 42.4312 11.9354Z" fill="#E9ECF1"/>
<path d="M47.5704 16.3375H56.095V17.0038H47.5704V16.3375Z" fill="#E9ECF1"/>
<path d="M59.4152 3.69376H60.8068L60.9547 4.87894C61.2177 4.4147 61.5573 4.06515 61.9792 3.82484C62.401 3.58453 62.8941 3.46983 63.4529 3.46983C64.0117 3.46983 64.5048 3.57907 64.9486 3.79207C65.3923 4.01054 65.7758 4.33277 66.099 4.7697C66.4223 5.20663 66.6633 5.72549 66.8167 6.32627C66.9756 6.92705 67.0523 7.60429 67.0523 8.36346C67.0523 9.88725 66.7291 11.0724 66.0881 11.9299C65.4471 12.7928 64.5596 13.2243 63.442 13.2243C63.1242 13.2243 62.8503 13.1915 62.6202 13.1315C62.3901 13.0659 62.1654 12.9785 61.9627 12.8638C61.5299 12.6126 61.1958 12.2685 60.9547 11.8207V16.5286H59.4152V3.69376ZM63.2173 11.9354C63.9624 11.9354 64.5212 11.635 64.8938 11.0287C65.2663 10.428 65.4526 9.53225 65.4526 8.34707C65.4526 7.1619 65.2663 6.27165 64.8938 5.66541C64.5212 5.06463 63.9624 4.75878 63.2173 4.75878C62.4722 4.75878 61.908 5.05917 61.5299 5.66541C61.1464 6.27165 60.9547 7.16736 60.9547 8.34707C60.9547 9.52679 61.1464 10.417 61.5299 11.0178C61.9134 11.6241 62.4777 11.9299 63.2173 11.9299V11.9354Z" fill="#E9ECF1"/>
<path d="M73.0075 13.2298C72.761 13.2298 72.5144 13.2188 72.2569 13.1915C71.9995 13.1642 71.7529 13.1315 71.5119 13.0878C71.2927 13.0441 71.0407 12.984 70.7503 12.9075C70.46 12.8311 70.1641 12.7437 69.8738 12.6508V11.0724C70.2299 11.2472 70.5312 11.3837 70.7832 11.482C71.0352 11.5804 71.2763 11.6623 71.5173 11.7278C71.7693 11.7988 72.0214 11.8534 72.2569 11.8917C72.498 11.9299 72.7445 11.9517 72.9965 11.9517C73.6704 11.9517 74.1909 11.8152 74.5689 11.5367C74.7606 11.3947 74.9031 11.2254 74.9907 11.0287C75.0784 10.8321 75.1222 10.641 75.1222 10.4389C75.1222 10.0511 74.9579 9.73979 74.6292 9.49948C74.3004 9.25916 73.7855 9.06801 73.0787 8.92054L73.013 8.90416L72.4377 8.78946C72.0214 8.70754 71.6543 8.59831 71.3256 8.4563C71.0024 8.31976 70.7284 8.13953 70.5038 7.9156C70.0984 7.51144 69.8957 6.95436 69.8957 6.2498C69.8957 5.80195 69.9724 5.40325 70.1258 5.06463C70.2792 4.72601 70.5038 4.43108 70.8051 4.19077C71.1229 3.93407 71.5009 3.75384 71.9392 3.63914C72.3775 3.52445 72.8705 3.46983 73.4129 3.46983C73.654 3.46983 73.8895 3.48076 74.1306 3.5026C74.3717 3.52445 74.6072 3.55722 74.8373 3.60091C75.051 3.64461 75.2701 3.69922 75.5002 3.77022C75.7303 3.84122 75.9604 3.92315 76.196 4.016V5.51248C75.7523 5.25579 75.3085 5.06463 74.8702 4.93901C74.6511 4.87893 74.4264 4.82978 74.2018 4.79701C73.9772 4.76424 73.7362 4.74786 73.4841 4.74786C73.1609 4.74786 72.8705 4.77516 72.613 4.82978C72.3556 4.8844 72.1419 4.96632 71.9666 5.08102C71.6214 5.3104 71.4516 5.65449 71.4516 6.11873C71.4516 6.31534 71.4845 6.49012 71.5447 6.6485C71.6105 6.80689 71.7036 6.93797 71.8296 7.03628C71.9556 7.13459 72.1693 7.2329 72.4651 7.33121C72.761 7.42952 73.1828 7.52783 73.7361 7.6316L74.3497 7.74629C74.7497 7.82276 75.0893 7.93199 75.3742 8.07945C75.6591 8.22145 75.8947 8.40169 76.081 8.60923C76.4699 9.03524 76.6617 9.59779 76.6617 10.3023C76.6617 10.7775 76.5795 11.1926 76.4097 11.5421C76.2398 11.8917 75.9988 12.1921 75.681 12.4433C75.3414 12.7109 74.9469 12.9075 74.4922 13.0332C74.0429 13.1588 73.5444 13.2243 72.9965 13.2243L73.0075 13.2298Z" fill="#E9ECF1"/>
<path d="M82.6493 12.3341C82.1782 11.8808 81.9426 11.0889 81.9426 9.9583V4.88444H79.4554V3.69927H81.9426V1.26338L83.4766 0.597061V3.69381H86.9555V4.87898H83.4766V9.9583C83.4766 10.641 83.6081 11.1162 83.8656 11.3947C84.1231 11.6678 84.5778 11.7989 85.2297 11.7989H86.95V13.0168H85.0763C83.9313 13.0168 83.1205 12.7874 82.6439 12.3286L82.6493 12.3341Z" fill="#E9ECF1"/>
<path d="M94.2636 13.2298C93.5459 13.2298 92.9049 13.1205 92.3351 12.9021C91.7654 12.6836 91.2833 12.3614 90.8833 11.9354C90.4834 11.5094 90.1821 10.996 89.9739 10.3952C89.7657 9.79441 89.6616 9.11716 89.6616 8.358C89.6616 7.59883 89.7657 6.89428 89.9794 6.30442C90.193 5.71456 90.4834 5.21209 90.8559 4.79701C91.2614 4.34916 91.738 4.016 92.2804 3.79753C92.8227 3.57907 93.4089 3.46983 94.039 3.46983C94.669 3.46983 95.2059 3.5736 95.6771 3.77568C96.1482 3.97777 96.5481 4.27816 96.8823 4.66593C97.2165 5.05371 97.4685 5.52341 97.6438 6.07503C97.8192 6.62666 97.9068 7.25475 97.9068 7.96476V8.713H91.2723V8.76216C91.2723 9.77256 91.5408 10.559 92.0722 11.1107C92.3297 11.3783 92.6365 11.5804 93.0035 11.7224C93.3651 11.8644 93.8034 11.9408 94.3074 11.9408C94.8114 11.9408 95.3264 11.8644 95.8469 11.706C96.3838 11.5476 96.9536 11.3127 97.5562 11.0014V12.5198C97.2604 12.6399 96.9755 12.7491 96.7015 12.8365C96.4221 12.9239 96.1482 13.0004 95.8743 13.0605C95.6058 13.1205 95.3429 13.1642 95.0744 13.1915C94.806 13.2188 94.543 13.2352 94.2855 13.2352L94.2636 13.2298ZM96.3619 7.51144C96.3509 7.03628 96.2852 6.62666 96.1756 6.28804C96.0606 5.94942 95.9126 5.67087 95.7318 5.46333C95.5346 5.22848 95.2881 5.05917 94.9922 4.93901C94.6964 4.82432 94.3677 4.76424 94.0006 4.76424C93.2501 4.76424 92.6419 5.01001 92.1708 5.4961C91.6942 5.98765 91.4093 6.66489 91.3216 7.52237L96.3673 7.51144H96.3619Z" fill="#E9ECF1"/>
<path d="M101.408 3.69376H102.8L102.948 5.51248C103.211 4.85163 103.605 4.34916 104.131 3.99415C104.652 3.64461 105.276 3.46983 106.005 3.46983C106.383 3.46983 106.739 3.51899 107.073 3.61184C107.232 3.65553 107.396 3.71561 107.555 3.79207C107.714 3.86853 107.867 3.95592 108.015 4.05423V5.61626C107.698 5.35956 107.363 5.17933 107.018 5.05917C106.673 4.94447 106.301 4.8844 105.895 4.8844C104.947 4.8844 104.219 5.18479 103.715 5.7801C103.211 6.36996 102.959 7.2329 102.959 8.36892V12.9895H101.419V3.69376H101.408Z" fill="#E9ECF1"/>
<path d="M113.57 0.00180054H115V16.9984H113.57V0.00180054Z" fill="#E9ECF1"/>
</g>
<defs>
<clipPath id="clip0_228_33">
<rect width="115" height="16.9966" fill="white" transform="translate(0 0.00170135)"/>
</clipPath>
</defs>
</svg>
