<svg width="23" height="17" viewBox="0 0 23 17" fill="none" xmlns="http://www.w3.org/2000/svg">
<g clip-path="url(#clip0_228_508)">
<path d="M1.46476 13.3933C1.25083 13.3933 1.05884 13.3556 0.888799 13.2803C0.724239 13.2049 0.57065 13.1026 0.428031 12.9627C0.137309 12.6774 -0.00531006 12.3221 -0.00531006 11.8914C-0.00531006 11.4608 0.137309 11.0786 0.428031 10.7933C0.718754 10.5079 1.05884 10.3788 1.47024 10.3788C1.66772 10.3788 1.8597 10.4111 2.03523 10.481C2.21076 10.551 2.37532 10.6533 2.51794 10.7933C2.80318 11.0732 2.94031 11.4392 2.94031 11.8914C2.94031 12.3436 2.79769 12.6827 2.51794 12.9627C2.22722 13.248 1.87616 13.3879 1.45927 13.3879L1.46476 13.3933Z" fill="#D90404"/>
<path d="M8.05804 14.6745H10.0108C10.5594 14.6745 10.9488 14.5237 11.1682 14.2223C11.3986 13.9155 11.5083 13.4094 11.5083 12.6935V5.72768H9.03443V3.88664H13.9548V12.6935C13.9548 14.0662 13.7025 15.0513 13.2033 15.6381C12.9564 15.9234 12.6273 16.1387 12.2104 16.2894C11.7936 16.4402 11.2889 16.5155 10.691 16.5155H8.05804V14.6745ZM11.7606 2.79924C11.5961 2.79924 11.5083 2.71849 11.5083 2.55161V0.247625C11.5083 0.0861305 11.5906 0 11.7606 0H13.7025C13.867 0 13.9548 0.0807473 13.9548 0.247625V2.55161C13.9548 2.71311 13.8725 2.79924 13.7025 2.79924H11.7606Z" fill="black"/>
<path d="M21.1075 0.247604H22.9999V17H21.1075V0.247604Z" fill="black"/>
</g>
<defs>
<clipPath id="clip0_228_508">
<rect width="23" height="17" fill="white"/>
</clipPath>
</defs>
</svg>
