<svg width="23" height="17" viewBox="0 0 23 17" fill="none" xmlns="http://www.w3.org/2000/svg">
<g clip-path="url(#clip0_228_28)">
<path d="M1.465 13.3933C1.25108 13.3933 1.05909 13.3556 0.889043 13.2803C0.724483 13.2049 0.570894 13.1026 0.428275 12.9627C0.137553 12.6774 -0.00506592 12.3221 -0.00506592 11.8914C-0.00506592 11.4608 0.137553 11.0786 0.428275 10.7933C0.718998 10.5079 1.05909 10.3787 1.47049 10.3787C1.66796 10.3787 1.85995 10.411 2.03548 10.481C2.21101 10.551 2.37557 10.6533 2.51819 10.7933C2.80342 11.0732 2.94056 11.4392 2.94056 11.8914C2.94056 12.3436 2.79794 12.6827 2.51819 12.9627C2.22746 13.248 1.8764 13.3879 1.45952 13.3879L1.465 13.3933Z" fill="#D90404"/>
<path d="M8.05801 14.6745H10.0108C10.5593 14.6745 10.9488 14.5238 11.1682 14.2223C11.3986 13.9155 11.5083 13.4095 11.5083 12.6935V5.72769H9.0344V3.88665H13.9547V12.6935C13.9547 14.0662 13.7024 15.0513 13.2033 15.6381C12.9564 15.9234 12.6273 16.1387 12.2104 16.2894C11.7935 16.4402 11.2889 16.5155 10.691 16.5155H8.05801V14.6745ZM11.7606 2.79926C11.5961 2.79926 11.5083 2.71851 11.5083 2.55163V0.247642C11.5083 0.0861476 11.5906 1.71661e-05 11.7606 1.71661e-05H13.7024C13.867 1.71661e-05 13.9547 0.0807645 13.9547 0.247642V2.55163C13.9547 2.71313 13.8725 2.79926 13.7024 2.79926H11.7606Z" fill="#E9ECF1"/>
<path d="M21.1077 0.247652H23.0002V17H21.1077V0.247652Z" fill="#E9ECF1"/>
</g>
<defs>
<clipPath id="clip0_228_28">
<rect width="23" height="17" fill="white"/>
</clipPath>
</defs>
</svg>
