<svg width="115" height="17" viewBox="0 0 115 17" fill="none" xmlns="http://www.w3.org/2000/svg">
<g clip-path="url(#clip0_228_14)">
<path d="M1.34772 13.2143C0.969701 13.2143 0.651946 13.0832 0.388976 12.8265C0.126006 12.5643 0 12.231 0 11.8159C0 11.4007 0.131485 11.062 0.388976 10.8053C0.646468 10.5485 0.969701 10.4174 1.34772 10.4174C1.72574 10.4174 2.04349 10.5485 2.30646 10.8053C2.56943 11.062 2.69544 11.4007 2.69544 11.8159C2.69544 12.231 2.56396 12.5697 2.30646 12.8265C2.04349 13.0887 1.72574 13.2143 1.34772 13.2143Z" fill="#D90404"/>
<path d="M8.49176 15.2301H10.4366C10.9352 15.2301 11.3132 15.0608 11.5597 14.7166C11.8118 14.367 11.9323 13.8481 11.9323 13.1543V4.88372H9.29163V3.69831H13.4608V13.1543C13.4608 13.6787 13.4005 14.154 13.2745 14.5746C13.154 14.9952 12.9677 15.3558 12.7157 15.6562C12.4637 15.9567 12.1624 16.1752 11.8063 16.3172C11.4502 16.4592 11.0448 16.5303 10.5955 16.5303H8.4808V15.2356L8.49176 15.2301ZM11.9378 2.01033C11.7734 2.01033 11.6857 1.92839 11.6857 1.75904V0.322346C11.6857 0.158464 11.7679 0.0710602 11.9378 0.0710602H13.1376C13.3019 0.0710602 13.3896 0.153001 13.3896 0.322346V1.75904C13.3896 1.92292 13.3074 2.01033 13.1376 2.01033H11.9378Z" fill="black"/>
<path d="M21.9032 13.2307C21.2622 13.2307 20.6979 13.127 20.1993 12.9194C19.7008 12.7118 19.2844 12.4004 18.9393 11.9852C18.5887 11.5537 18.3312 11.0293 18.1668 10.4229C18.0025 9.81108 17.9148 9.11731 17.9148 8.34161C17.9148 6.76834 18.2545 5.56108 18.9393 4.71982C19.6241 3.88402 20.6102 3.46886 21.9032 3.46886C22.5716 3.46886 23.1468 3.57265 23.6399 3.79116C24.1329 4.0042 24.5438 4.31558 24.878 4.72528C25.5628 5.56654 25.9025 6.76834 25.9025 8.33614C25.9025 9.12824 25.8203 9.83293 25.6505 10.4448C25.4807 11.0566 25.2232 11.5755 24.878 11.9907C24.5438 12.4004 24.1275 12.7118 23.6344 12.9194C23.1358 13.1324 22.5606 13.2362 21.9086 13.2362L21.9032 13.2307ZM21.9032 11.9361C22.6866 11.9361 23.2783 11.6302 23.6782 11.0238C24.0782 10.4229 24.2754 9.52702 24.2754 8.35253C24.2754 7.17805 24.0782 6.28216 23.6782 5.67034C23.2783 5.06944 22.6866 4.76352 21.9032 4.76352C21.1197 4.76352 20.539 5.06397 20.1391 5.67034C19.7391 6.2767 19.5364 7.17258 19.5364 8.35253C19.5364 9.53248 19.7391 10.4229 20.1391 11.0238C20.539 11.6302 21.1252 11.9361 21.9032 11.9361Z" fill="black"/>
<path d="M31.3099 13.2307C30.3456 13.2307 29.5786 12.9631 29.0198 12.4277C28.7514 12.171 28.5432 11.8705 28.3953 11.5264C28.2474 11.1822 28.1707 10.7616 28.1707 10.2754C28.1707 9.25388 28.5213 8.46725 29.2171 7.92644C29.9074 7.39109 30.9264 7.12342 32.2796 7.12342H34.334V6.88306C34.334 6.52798 34.2847 6.21114 34.1916 5.93801C34.0984 5.65941 33.956 5.43544 33.7697 5.26609C33.5835 5.10221 33.3424 4.97657 33.0466 4.89463C32.7452 4.81269 32.4001 4.76899 32.0002 4.76899C31.4742 4.76899 30.9428 4.84546 30.4114 4.99296C29.8745 5.14045 29.354 5.35896 28.8555 5.64848V4.11892C29.091 4.03152 29.3485 3.94411 29.6279 3.85125C29.9128 3.76384 30.1977 3.68737 30.4881 3.62728C30.9921 3.52348 31.5016 3.46886 32.0111 3.46886C32.4056 3.46886 32.7617 3.49617 33.0849 3.55626C33.4081 3.61635 33.704 3.70375 33.9834 3.81847C34.2409 3.92773 34.4819 4.06976 34.712 4.2391C34.9421 4.40845 35.1394 4.6051 35.2982 4.82361C35.4133 4.98203 35.5119 5.15138 35.5831 5.33165C35.6543 5.50645 35.7091 5.68126 35.7475 5.85607C35.8351 6.26031 35.879 6.87213 35.879 7.69154V9.59257C35.8899 9.91487 35.9009 10.1935 35.9064 10.4393C35.9064 10.6851 35.9283 10.9091 35.9557 11.1221C35.983 11.357 36.0159 11.5755 36.0488 11.7777C36.0871 11.9798 36.1145 12.1382 36.1419 12.242C36.1803 12.4113 36.2241 12.5752 36.2734 12.7282C36.3227 12.8811 36.3556 12.9685 36.3665 12.9958H34.8271C34.7997 12.9303 34.7668 12.832 34.723 12.7009C34.6792 12.5698 34.6408 12.4277 34.6025 12.2748C34.5751 12.1546 34.5477 12.0289 34.5258 11.9033C34.5038 11.7777 34.4819 11.6739 34.471 11.581C34.3121 11.8596 34.1039 12.1054 33.8519 12.3185C33.5999 12.5315 33.3534 12.7063 33.1068 12.832C32.8384 12.9685 32.559 13.0723 32.2631 13.1324C31.9673 13.198 31.6495 13.2253 31.3099 13.2253V13.2307ZM31.6276 11.9525C32.4658 11.9525 33.1233 11.6575 33.6108 11.073C34.0984 10.4775 34.345 9.66905 34.345 8.65845V8.31976H32.4056C31.518 8.31976 30.8442 8.47271 30.3895 8.78409C30.1484 8.94251 29.9786 9.14463 29.869 9.37953C29.7594 9.61442 29.7046 9.88756 29.7046 10.1989C29.7046 10.4885 29.7485 10.7397 29.8361 10.9528C29.9238 11.1658 30.0498 11.3461 30.2087 11.4936C30.3675 11.6356 30.5648 11.7503 30.7949 11.8323C31.025 11.9142 31.2989 11.9579 31.6221 11.9579L31.6276 11.9525Z" fill="black"/>
<path d="M42.4313 13.2307C41.7903 13.2307 41.226 13.127 40.7275 12.9194C40.2289 12.7118 39.8126 12.4004 39.4674 11.9852C39.1168 11.5537 38.8593 11.0293 38.6949 10.4229C38.5306 9.81108 38.4429 9.11731 38.4429 8.34161C38.4429 6.76834 38.7826 5.56108 39.4674 4.71982C40.1522 3.88402 41.1384 3.46886 42.4313 3.46886C43.0997 3.46886 43.6749 3.57265 44.168 3.79116C44.6611 4.0042 45.072 4.31558 45.4062 4.72528C46.091 5.56654 46.4306 6.76834 46.4306 8.33614C46.4306 9.12824 46.3485 9.83293 46.1786 10.4448C46.0088 11.0566 45.7513 11.5755 45.4062 11.9907C45.072 12.4004 44.6556 12.7118 44.1625 12.9194C43.664 13.1324 43.0887 13.2362 42.4368 13.2362L42.4313 13.2307ZM42.4313 11.9361C43.2147 11.9361 43.8064 11.6302 44.2064 11.0238C44.6063 10.4229 44.8035 9.52702 44.8035 8.35253C44.8035 7.17805 44.6063 6.28216 44.2064 5.67034C43.8064 5.06944 43.2147 4.76352 42.4313 4.76352C41.6479 4.76352 41.0672 5.06397 40.6672 5.67034C40.2673 6.2767 40.0646 7.17258 40.0646 8.35253C40.0646 9.53248 40.2673 10.4229 40.6672 11.0238C41.0672 11.6302 41.6534 11.9361 42.4313 11.9361Z" fill="black"/>
<path d="M47.5701 16.3391H56.0947V17.0055H47.5701V16.3391Z" fill="black"/>
<path d="M59.4148 3.69283H60.8063L60.9543 4.87824C61.2172 4.41391 61.5569 4.06429 61.9788 3.82393C62.4006 3.58357 62.8937 3.46886 63.4525 3.46886C64.0113 3.46886 64.5044 3.57811 64.9481 3.79116C65.3919 4.00967 65.7754 4.33197 66.0986 4.76899C66.4218 5.206 66.6629 5.72496 66.8163 6.32586C66.9752 6.92676 67.0519 7.60414 67.0519 8.36346C67.0519 9.88756 66.7286 11.073 66.0877 11.9306C65.4467 12.7937 64.5591 13.2253 63.4415 13.2253C63.1238 13.2253 62.8498 13.1925 62.6197 13.1324C62.3896 13.0669 62.165 12.9795 61.9623 12.8647C61.5295 12.6135 61.1953 12.2693 60.9543 11.8214V16.5302H59.4148V3.69283ZM63.2169 11.9361C63.962 11.9361 64.5208 11.6356 64.8933 11.0293C65.2659 10.4284 65.4521 9.53248 65.4521 8.34707C65.4521 7.16166 65.2659 6.27124 64.8933 5.66487C64.5208 5.06397 63.962 4.75806 63.2169 4.75806C62.4718 4.75806 61.9075 5.05851 61.5295 5.66487C61.146 6.27124 60.9543 7.16712 60.9543 8.34707C60.9543 9.52702 61.146 10.4174 61.5295 11.0183C61.913 11.6247 62.4773 11.9306 63.2169 11.9306V11.9361Z" fill="black"/>
<path d="M73.007 13.2307C72.7604 13.2307 72.5139 13.2198 72.2564 13.1925C71.9989 13.1652 71.7524 13.1324 71.5113 13.0887C71.2922 13.045 71.0402 12.9849 70.7498 12.9084C70.4594 12.832 70.1636 12.7446 69.8732 12.6517V11.073C70.2293 11.2478 70.5307 11.3843 70.7827 11.4827C71.0347 11.581 71.2757 11.6629 71.5168 11.7285C71.7688 11.7995 72.0208 11.8541 72.2564 11.8924C72.4974 11.9306 72.744 11.9525 72.996 11.9525C73.6699 11.9525 74.1903 11.8159 74.5683 11.5373C74.7601 11.3953 74.9025 11.2259 74.9902 11.0293C75.0778 10.8326 75.1217 10.6414 75.1217 10.4393C75.1217 10.0514 74.9573 9.74006 74.6286 9.4997C74.2999 9.25935 73.7849 9.06815 73.0782 8.92066L73.0124 8.90427L72.4372 8.78955C72.0208 8.70761 71.6538 8.59836 71.325 8.45632C71.0018 8.31976 70.7279 8.13949 70.5033 7.91551C70.0979 7.51127 69.8951 6.95408 69.8951 6.24938C69.8951 5.80144 69.9718 5.40266 70.1252 5.06397C70.2786 4.72528 70.5033 4.4303 70.8046 4.18994C71.1223 3.93319 71.5004 3.75292 71.9386 3.6382C72.3769 3.52348 72.87 3.46886 73.4124 3.46886C73.6534 3.46886 73.889 3.47978 74.1301 3.50163C74.3711 3.52348 74.6067 3.55626 74.8368 3.59996C75.0505 3.64366 75.2696 3.69829 75.4997 3.76931C75.7298 3.84032 75.9599 3.92226 76.1955 4.01513V5.51192C75.7517 5.25517 75.3079 5.06397 74.8697 4.93833C74.6505 4.87824 74.4259 4.82908 74.2013 4.7963C73.9767 4.76352 73.7356 4.74713 73.4836 4.74713C73.1604 4.74713 72.87 4.77445 72.6125 4.82908C72.355 4.8837 72.1413 4.96564 71.966 5.08036C71.6209 5.3098 71.451 5.65395 71.451 6.11828C71.451 6.31494 71.4839 6.48974 71.5442 6.64816C71.6099 6.80658 71.7031 6.93769 71.8291 7.03602C71.9551 7.13435 72.1687 7.23267 72.4646 7.331C72.7604 7.42933 73.1823 7.52766 73.7356 7.63145L74.3492 7.74617C74.7491 7.82265 75.0888 7.9319 75.3737 8.0794C75.6586 8.22143 75.8941 8.4017 76.0804 8.60928C76.4694 9.03537 76.6611 9.59803 76.6611 10.3027C76.6611 10.778 76.579 11.1931 76.4091 11.5428C76.2393 11.8924 75.9982 12.1928 75.6805 12.4441C75.3408 12.7118 74.9464 12.9084 74.4916 13.0341C74.0424 13.1597 73.5439 13.2253 72.996 13.2253L73.007 13.2307Z" fill="black"/>
<path d="M82.6493 12.3349C82.1781 11.8815 81.9425 11.0894 81.9425 9.95858V4.88371H79.4553V3.6983H81.9425V1.26193L83.4765 0.595474V3.69284H86.9554V4.87825H83.4765V9.95858C83.4765 10.6414 83.608 11.1167 83.8655 11.3953C84.123 11.6684 84.5777 11.7995 85.2296 11.7995H86.9499V13.0177H85.0762C83.9312 13.0177 83.1204 12.7883 82.6438 12.3294L82.6493 12.3349Z" fill="black"/>
<path d="M94.2637 13.2307C93.546 13.2307 92.905 13.1215 92.3352 12.903C91.7655 12.6845 91.2834 12.3622 90.8834 11.9361C90.4835 11.51 90.1822 10.9965 89.974 10.3956C89.7658 9.79469 89.6617 9.11731 89.6617 8.358C89.6617 7.59868 89.7658 6.89399 89.9795 6.30401C90.1931 5.71404 90.4835 5.21147 90.856 4.7963C91.2614 4.34836 91.7381 4.01513 92.2805 3.79662C92.8228 3.57811 93.409 3.46886 94.0391 3.46886C94.6691 3.46886 95.206 3.57265 95.6771 3.77477C96.1483 3.97689 96.5482 4.27734 96.8824 4.66519C97.2166 5.05305 97.4686 5.52284 97.6439 6.07458C97.8193 6.62631 97.9069 7.25453 97.9069 7.96468V8.71307H91.2724V8.76224C91.2724 9.77284 91.5408 10.5595 92.0723 11.1112C92.3298 11.3789 92.6366 11.581 93.0036 11.723C93.3652 11.8651 93.8035 11.9415 94.3075 11.9415C94.8115 11.9415 95.3265 11.8651 95.847 11.7066C96.3839 11.5482 96.9536 11.3133 97.5563 11.002V12.5206C97.2604 12.6408 96.9756 12.75 96.7016 12.8374C96.4222 12.9248 96.1483 13.0013 95.8744 13.0614C95.6059 13.1215 95.343 13.1652 95.0745 13.1925C94.8061 13.2198 94.5431 13.2362 94.2856 13.2362L94.2637 13.2307ZM96.362 7.51127C96.351 7.03602 96.2853 6.62631 96.1757 6.28762C96.0606 5.94893 95.9127 5.67034 95.7319 5.46275C95.5347 5.22785 95.2882 5.05851 94.9923 4.93833C94.6965 4.82361 94.3678 4.76352 94.0007 4.76352C93.2502 4.76352 92.642 5.00935 92.1709 5.49553C91.6943 5.98717 91.4094 6.66455 91.3217 7.5222L96.3674 7.51127H96.362Z" fill="black"/>
<path d="M101.408 3.69283H102.799L102.947 5.51192C103.21 4.85093 103.605 4.34836 104.131 3.99328C104.651 3.64366 105.276 3.46886 106.004 3.46886C106.382 3.46886 106.738 3.51802 107.073 3.61089C107.231 3.65459 107.396 3.71468 107.555 3.79116C107.714 3.86764 107.867 3.95504 108.015 4.05337V5.61571C107.697 5.35896 107.363 5.17869 107.018 5.05851C106.673 4.94379 106.3 4.8837 105.895 4.8837C104.947 4.8837 104.218 5.18415 103.714 5.77959C103.21 6.36956 102.958 7.23267 102.958 8.36892V12.9904H101.419V3.69283H101.408Z" fill="black"/>
<path d="M113.57 4.57764e-05H115V17H113.57V4.57764e-05Z" fill="black"/>
</g>
<defs>
<clipPath id="clip0_228_14">
<rect width="115" height="17" fill="white"/>
</clipPath>
</defs>
</svg>
