<svg width="30" height="19" viewBox="0 0 30 19" fill="none" xmlns="http://www.w3.org/2000/svg">
<g id="Wedding Personas" clip-path="url(#clip0_189_218)">
<path id="Vector" fill-rule="evenodd" clip-rule="evenodd" d="M19.5541 7.12692C20.045 7.15203 20.537 7.10494 21.0142 6.98718C21.4329 6.88342 21.8285 6.70199 22.1803 6.45231C22.2309 6.41617 22.3393 6.31739 22.455 6.21138C22.6766 6.00899 22.9369 5.78011 23.0549 5.78011C23.173 5.78011 23.479 6.02104 23.6837 6.18487C23.7488 6.23788 23.8042 6.28366 23.8403 6.31016C24.1219 6.51708 24.4229 6.69621 24.739 6.84503C25.0155 6.97305 25.3081 7.06302 25.6088 7.11247C25.6794 7.11778 25.7502 7.11778 25.8208 7.11247C26.0618 7.11247 26.322 7.11247 26.4328 7.26666C26.4693 7.32049 26.4916 7.38263 26.4978 7.44736C26.5052 7.50899 26.5052 7.57126 26.4978 7.63288C26.4762 7.8425 26.4424 8.07379 26.3991 8.32195C26.5227 8.34102 26.6401 8.3889 26.7418 8.46172C26.8435 8.53455 26.9267 8.63028 26.9845 8.74118C27.0432 8.86319 27.0634 9.00016 27.0424 9.1339C27.0206 9.26745 26.9705 9.39479 26.8954 9.50734C26.7925 9.65803 26.6574 9.78398 26.4999 9.87607C26.3424 9.96815 26.1664 10.0241 25.9847 10.0398C25.9341 10.1892 25.8811 10.3362 25.8232 10.4783C25.6894 10.8149 25.5232 11.1376 25.3269 11.442C25.6772 11.2987 25.995 11.0865 26.2617 10.818C26.7814 10.2659 27.1266 9.57284 27.2544 8.8255C27.401 8.03958 27.373 7.23104 27.1725 6.45713C27.0051 5.75607 26.6552 5.11183 26.1581 4.5899C26.0642 4.49834 25.9172 4.3851 25.7895 4.27427C25.6618 4.16344 25.5486 4.09839 25.457 4.03334C25.3983 4.13727 25.3067 4.21878 25.1967 4.26513C25.0867 4.31147 24.9644 4.32003 24.849 4.28946C24.7336 4.25888 24.6316 4.19091 24.5589 4.09617C24.4863 4.00144 24.4471 3.88529 24.4475 3.7659C24.4481 3.62319 24.5053 3.48653 24.6064 3.38584C24.7076 3.28515 24.8445 3.22862 24.9872 3.22862H25.045C24.995 2.97323 24.8865 2.73289 24.7281 2.5264C24.5696 2.31992 24.3656 2.1529 24.1319 2.03841C23.8011 1.86726 23.4384 1.76687 23.0667 1.74364C22.695 1.72041 22.3226 1.77485 21.9731 1.90349C21.6814 2.0106 21.4198 2.18622 21.2101 2.41557C21.0005 2.64492 20.849 2.92129 20.7684 3.22139C20.8739 3.22578 20.9757 3.26098 21.0614 3.32264C21.147 3.38431 21.2127 3.46973 21.2503 3.56834C21.2221 3.50692 21.2057 3.4407 21.2021 3.37318C21.2022 3.2343 21.2542 3.10047 21.3479 2.99796C21.4416 2.89545 21.5702 2.83168 21.7085 2.81917C21.8469 2.80666 21.9849 2.84631 22.0954 2.93034C22.206 3.01437 22.2812 3.1367 22.3062 3.27331C22.3311 3.40993 22.3042 3.55095 22.2305 3.66868C22.1568 3.78641 22.0418 3.87235 21.908 3.90961C21.7742 3.94687 21.6313 3.93277 21.5074 3.87007C21.3835 3.80737 21.2875 3.70061 21.2383 3.57075C21.2803 3.70092 21.2714 3.84221 21.2133 3.96604C21.1552 4.08988 21.0522 4.18703 20.9252 4.23783C20.7982 4.28864 20.6566 4.28931 20.5291 4.23972C20.4016 4.19013 20.2977 4.09397 20.2384 3.9707C19.311 4.66942 18.6579 5.67118 18.3928 6.80166C18.2466 7.38743 18.2107 7.99529 18.2868 8.59421C18.3563 9.16017 18.5532 9.70302 18.8627 10.182C19.2122 10.7199 19.7161 11.1398 20.3083 11.3866C20.2011 11.2421 20.106 11.089 20.024 10.9289C19.9031 10.6399 19.8001 10.3438 19.7156 10.0422C19.5385 10.0233 19.3678 9.96615 19.2151 9.87462C19.0624 9.78308 18.9314 9.6594 18.8313 9.51216C18.7562 9.39961 18.7061 9.27227 18.6844 9.13872C18.6634 9.00498 18.6835 8.86801 18.7422 8.746C18.7969 8.64115 18.8744 8.54992 18.9691 8.47904C19.0638 8.40815 19.1731 8.35941 19.2891 8.33641C19.2534 8.14618 19.23 7.95383 19.2192 7.76058C19.2048 7.44014 19.2698 7.21366 19.4602 7.14861C19.4864 7.13908 19.5142 7.13418 19.5421 7.13415L19.5541 7.12692ZM29.4975 18.8531V19.0001H0.207203V18.723H0C0.301167 15.1789 -0.0770986 14.5766 3.70555 13.2514C4.291 13.0717 4.84346 12.7983 5.34149 12.4419C5.5254 12.0016 5.68624 11.5521 5.82336 11.0951L5.88359 10.912C5.58208 10.5328 5.30678 10.1336 5.0596 9.71696L4.19947 8.35087C3.92841 7.98547 3.76184 7.55322 3.7176 7.10042C3.71084 6.94732 3.73971 6.79474 3.80193 6.65469C3.86624 6.51493 3.96797 6.39568 4.09587 6.31016C4.16049 6.26674 4.23005 6.23116 4.30307 6.20415C4.24331 5.38639 4.22964 4.56592 4.26211 3.74663C4.28228 3.55854 4.31773 3.37241 4.36812 3.19007C4.68374 2.06491 5.64989 1.26261 6.75336 0.874704C7.29546 0.689186 7.09067 -0.0287955 7.63036 0.000116473C8.91453 0.0723965 10.8926 1.17587 11.6539 2.05287C12.7189 3.28163 12.4442 4.79469 12.4081 6.29329C12.5197 6.32159 12.6213 6.38024 12.7017 6.46273C12.7821 6.54523 12.8381 6.64836 12.8634 6.7607C12.9309 7.03296 12.8634 7.41363 12.6225 7.93646C12.6196 7.94696 12.6147 7.95679 12.608 7.96537L11.6299 9.57962C11.2851 10.207 10.8581 10.7856 10.3601 11.2999L10.3264 11.3312L10.5288 11.6348C10.7071 11.9022 10.9119 12.2082 11.0998 12.454C11.5622 12.7823 12.0737 13.0352 12.6153 13.2033C14.4921 13.8586 15.8004 14.073 16.3136 15.6897C17.099 14.2007 19.2361 13.8586 20.436 13.6659C20.6651 13.6404 20.8916 13.5952 21.113 13.5309C21.1385 13.5101 21.1577 13.4826 21.1684 13.4514C21.1857 13.4035 21.1946 13.353 21.1949 13.302V12.3118C21.1968 12.3036 21.1992 12.2956 21.2021 12.2877C21.0985 12.2058 20.9973 12.1215 20.8986 12.0323C20.8621 12.0409 20.8242 12.0409 20.7877 12.0323C19.8417 11.8206 19.0139 11.2518 18.4772 10.4446C18.1285 9.90455 17.907 9.29248 17.8291 8.65444C17.7064 7.65598 17.8604 6.64302 18.2742 5.72612C18.6881 4.80922 19.3459 4.02363 20.1758 3.4551C20.2075 3.43404 20.2439 3.42083 20.2818 3.41655C20.2696 3.37649 20.2696 3.33374 20.2818 3.29367C20.3586 2.88301 20.541 2.49939 20.8109 2.18048C21.0808 1.86156 21.429 1.61832 21.8213 1.47463C22.2278 1.32392 22.6613 1.25978 23.0941 1.28634C23.5268 1.31289 23.9492 1.42954 24.3343 1.62883C24.6684 1.79154 24.9536 2.03971 25.1609 2.34816C25.3682 2.65661 25.4903 3.01438 25.5148 3.38523C25.5164 3.42987 25.5056 3.47409 25.4835 3.51292C25.5082 3.51986 25.5318 3.53042 25.5534 3.54425C25.6907 3.63339 25.8811 3.77072 26.0618 3.91046C26.2035 4.02061 26.3394 4.13802 26.4689 4.26223C27.0252 4.84252 27.4177 5.56001 27.6061 6.34148C27.8243 7.18234 27.8539 8.06101 27.6929 8.91465C27.55 9.75234 27.1618 10.5288 26.5774 11.1457C26.1456 11.5824 25.6036 11.8938 25.0089 12.0468C24.9556 12.0607 24.8991 12.0547 24.8499 12.0299C24.7842 12.0909 24.715 12.1481 24.6427 12.201L24.6017 12.2299L24.421 12.3624C24.4223 12.3776 24.4223 12.393 24.421 12.4082V13.3069C24.422 13.3579 24.4318 13.4085 24.4499 13.4562C24.4606 13.4874 24.4798 13.515 24.5053 13.5357C24.7266 13.6007 24.9531 13.6458 25.1823 13.6707C26.6713 13.9116 29.6035 14.379 29.6035 16.9835V18.67C29.6025 18.7089 29.5921 18.7469 29.5732 18.7809C29.5544 18.8149 29.5275 18.8438 29.4951 18.8652L29.4975 18.8531ZM6.34136 14.1549C5.82095 13.8201 5.84022 12.7768 6.34136 12.454C6.98324 12.6184 7.58655 12.9074 8.11704 13.3045C8.68554 13.7478 9.34297 14.0634 10.0445 14.2296C10.7336 13.8562 10.7047 12.8009 10.1072 12.3528C9.46386 12.6612 8.71697 12.8105 8.17969 13.278C7.65122 13.72 7.01977 14.0217 6.34377 14.1549H6.34136ZM4.81867 6.60169C4.66643 6.59876 4.51635 6.63795 4.38499 6.71493C4.33059 6.74947 4.28714 6.79877 4.2597 6.85708C4.2271 6.93296 4.21385 7.01575 4.22115 7.09801C4.26655 7.46059 4.40702 7.80471 4.62833 8.09548L5.48846 9.46157C5.80497 10.0159 6.19299 10.5262 6.64253 10.9794C7.08444 11.407 7.6756 11.6456 8.29051 11.6444C8.61271 11.6499 8.9328 11.5914 9.23223 11.4723C9.53165 11.3532 9.80447 11.1758 10.0349 10.9505C10.5015 10.465 10.9017 9.91976 11.2251 9.32905L12.1888 7.73408C12.3671 7.32449 12.4297 7.04742 12.3936 6.88599C12.3671 6.78962 12.2611 6.74384 12.0804 6.7342H11.9623H11.8274C11.8027 6.73786 11.7775 6.73786 11.7527 6.7342C11.6641 6.73773 11.5754 6.73289 11.4877 6.71975L11.8202 5.25246C9.35785 5.64036 7.51712 3.80686 4.91745 4.88624L5.10538 6.61614C5.00957 6.61948 4.91365 6.61465 4.81867 6.60169ZM5.61134 12.919L5.58965 12.9455C5.92696 14.832 6.74854 15.6295 8.18691 17.1281C9.75539 15.7475 10.7504 14.9163 10.9239 12.9551C10.6502 12.6137 10.3944 12.2582 10.1577 11.8902C10.0951 11.7938 10.0349 11.7022 9.97705 11.6203C9.42248 11.9944 8.7572 12.1689 8.09042 12.115C7.42364 12.0612 6.79497 11.7822 6.30763 11.324L6.25704 11.2758C6.10043 11.7577 5.82336 12.5961 5.59929 12.9093L5.61134 12.919ZM16.5015 16.6101C16.528 16.851 16.5449 17.0919 16.5521 17.3594C17.6532 15.4825 21.6334 14.9067 22.7778 18.0701C24.2523 14.8199 28.2037 15.5331 29.1433 17.4172V16.9787C29.1433 14.7669 26.4689 14.3284 25.1125 14.1188C24.8057 14.0993 24.5051 14.0233 24.2258 13.8947C24.1334 13.824 24.0625 13.7289 24.021 13.6201C23.9859 13.5209 23.9664 13.4169 23.9632 13.3117V12.6612C23.5732 12.9127 23.1096 13.0247 22.6477 12.9792C22.5617 12.9681 22.4765 12.952 22.3923 12.931C22.3024 12.9069 22.2132 12.878 22.1249 12.8443C21.9779 12.772 21.8286 12.6901 21.6816 12.6033V13.3261C21.6807 13.4316 21.6612 13.536 21.6238 13.6345C21.5824 13.7427 21.5124 13.8376 21.4214 13.9092C21.1421 14.0378 20.8416 14.1138 20.5347 14.1333C19.2554 14.3405 16.8099 14.7332 16.528 16.6245L16.5015 16.6101ZM5.71012 6.66433C5.68004 6.68157 5.64462 6.68701 5.61074 6.6796C5.57687 6.67218 5.54697 6.65243 5.52684 6.6242C5.50671 6.59596 5.49781 6.56125 5.50184 6.52681C5.50588 6.49237 5.52258 6.46067 5.54869 6.43785C5.77952 6.26329 6.05929 6.16554 6.34859 6.15837C6.64338 6.16381 6.92903 6.26156 7.16536 6.43785C7.18053 6.44802 7.19352 6.4611 7.20357 6.47635C7.21362 6.49159 7.22053 6.50869 7.2239 6.52664C7.22726 6.54459 7.22702 6.56303 7.22317 6.58088C7.21932 6.59873 7.21195 6.61563 7.2015 6.6306C7.18055 6.66072 7.14859 6.6814 7.11253 6.68816C7.07646 6.69492 7.03919 6.68723 7.00875 6.66674C6.82048 6.51893 6.59021 6.43458 6.351 6.42581C6.11853 6.43235 5.89414 6.51249 5.71012 6.65469V6.66433ZM7.50989 10.153C7.49389 10.141 7.4813 10.125 7.47336 10.1066C7.46541 10.0882 7.46239 10.068 7.46457 10.0481C7.46676 10.0282 7.47408 10.0092 7.48583 9.99293C7.49758 9.9767 7.51334 9.96379 7.53158 9.95548C7.57334 9.93045 7.62172 9.91866 7.67032 9.92167C7.71892 9.92468 7.76547 9.94235 7.80383 9.97235C7.95412 10.0642 8.12923 10.1071 8.30497 10.0952C8.48094 10.1061 8.65597 10.0624 8.80611 9.96994C8.8452 9.94016 8.89246 9.92305 8.94156 9.92089C8.99065 9.91874 9.03923 9.93165 9.08078 9.95789C9.09872 9.96633 9.11414 9.97934 9.12548 9.99561C9.13683 10.0119 9.14369 10.0309 9.1454 10.0506C9.14711 10.0704 9.1436 10.0902 9.13521 10.1082C9.12683 10.1262 9.11388 10.1417 9.09764 10.153C8.864 10.31 8.58612 10.3877 8.30497 10.3747C8.02305 10.3879 7.74435 10.3102 7.50989 10.153ZM9.47832 7.46905C9.46303 7.4593 9.44987 7.44658 9.43961 7.43163C9.42936 7.41669 9.42222 7.39983 9.41862 7.38207C9.41502 7.3643 9.41504 7.34599 9.41867 7.32824C9.42231 7.31048 9.42948 7.29363 9.43977 7.27871C9.4487 7.26169 9.46111 7.24673 9.47618 7.23481C9.49126 7.22288 9.50868 7.21426 9.5273 7.20949C9.54592 7.20472 9.56534 7.20391 9.58429 7.20712C9.60325 7.21033 9.62132 7.21748 9.63733 7.22812C9.7845 7.30884 9.95174 7.34563 10.1192 7.33413C10.2862 7.34054 10.4521 7.30405 10.6011 7.22812C10.6321 7.20809 10.6698 7.20116 10.7059 7.20884C10.742 7.21651 10.7736 7.23817 10.7938 7.26907C10.8036 7.28439 10.8102 7.30149 10.8133 7.31938C10.8164 7.33727 10.8159 7.35559 10.8118 7.37329C10.8078 7.39099 10.8003 7.40772 10.7898 7.4225C10.7792 7.43728 10.7659 7.44983 10.7504 7.45941C10.5593 7.5723 10.3412 7.63141 10.1192 7.63047C9.89433 7.64101 9.67136 7.58485 9.47832 7.46905ZM5.82818 7.46905C5.81197 7.45991 5.79782 7.44753 5.78663 7.43266C5.77544 7.4178 5.76745 7.40078 5.76315 7.38268C5.75885 7.36458 5.75834 7.34579 5.76165 7.32748C5.76497 7.30917 5.77203 7.29175 5.7824 7.2763C5.79214 7.26102 5.80487 7.24786 5.81981 7.2376C5.83476 7.22734 5.85162 7.2202 5.86938 7.2166C5.88715 7.21301 5.90545 7.21302 5.92321 7.21666C5.94097 7.22029 5.95781 7.22747 5.97274 7.23775C6.11984 7.31903 6.28678 7.35742 6.4546 7.34858C6.63484 7.35441 6.81344 7.31287 6.97261 7.22812C7.00406 7.21505 7.03921 7.21392 7.07143 7.22494C7.10366 7.23596 7.13076 7.25837 7.14762 7.28796C7.16449 7.31755 7.16997 7.35229 7.16303 7.38563C7.15609 7.41898 7.13721 7.44864 7.10994 7.46905C6.912 7.57678 6.68958 7.63156 6.46424 7.62806C6.24136 7.63712 6.02058 7.58192 5.82818 7.46905ZM9.60119 6.66674C9.58651 6.67744 9.56986 6.68512 9.5522 6.68933C9.53453 6.69355 9.51621 6.69422 9.49828 6.69131C9.48036 6.6884 9.46319 6.68196 9.44777 6.67236C9.43235 6.66277 9.41898 6.65021 9.40845 6.63542C9.38758 6.60489 9.37943 6.56744 9.38573 6.531C9.39203 6.49457 9.41228 6.46202 9.44218 6.44026C9.673 6.2657 9.95277 6.16795 10.2421 6.16078C10.5368 6.16654 10.8224 6.26426 11.0588 6.44026C11.0908 6.46103 11.1132 6.49364 11.1211 6.53092C11.129 6.56819 11.1218 6.60708 11.101 6.63903C11.0802 6.67098 11.0476 6.69337 11.0103 6.70128C10.9731 6.70919 10.9342 6.70196 10.9022 6.6812C10.7131 6.53335 10.482 6.44903 10.2421 6.44026C10.0097 6.44746 9.78553 6.52753 9.60119 6.66915V6.66674ZM12.5285 16.4004H14.5909C14.625 16.4011 14.6575 16.4151 14.6814 16.4394C14.7052 16.4637 14.7186 16.4965 14.7186 16.5306V16.6823C14.7186 16.6991 14.7153 16.7157 14.7089 16.7312C14.7025 16.7467 14.6931 16.7608 14.6812 16.7726C14.6694 16.7845 14.6553 16.7939 14.6398 16.8003C14.6243 16.8067 14.6077 16.81 14.5909 16.81H12.5285C12.5118 16.81 12.4952 16.8067 12.4797 16.8003C12.4642 16.7939 12.4501 16.7845 12.4382 16.7726C12.4264 16.7608 12.417 16.7467 12.4106 16.7312C12.4041 16.7157 12.4008 16.6991 12.4008 16.6823V16.5306C12.4008 16.4965 12.4142 16.4637 12.4381 16.4394C12.462 16.4151 12.4944 16.4011 12.5285 16.4004ZM20.554 8.27136C20.5243 8.29276 20.4873 8.30149 20.4512 8.29562C20.415 8.28974 20.3827 8.26975 20.3613 8.24004C20.3399 8.21032 20.3311 8.17332 20.337 8.13718C20.3429 8.10103 20.3629 8.0687 20.3926 8.04729C20.602 7.89257 20.855 7.80822 21.1154 7.80636C21.3802 7.80812 21.6379 7.89234 21.8526 8.04729C21.8824 8.06861 21.9026 8.10073 21.9089 8.13677C21.9152 8.17281 21.9071 8.20989 21.8864 8.24004C21.8763 8.25494 21.8632 8.26766 21.8481 8.27745C21.833 8.28725 21.8161 8.29391 21.7983 8.29706C21.7806 8.3002 21.7624 8.29976 21.7448 8.29576C21.7273 8.29176 21.7107 8.28428 21.696 8.27377C21.5273 8.14937 21.3249 8.07883 21.1154 8.07138C20.9118 8.07873 20.7155 8.14948 20.554 8.27377V8.27136ZM22.8092 15.309L23.291 15.7909L22.8092 16.2728L22.3273 15.7909L22.8092 15.309ZM22.8092 15.6319L22.9778 15.7981L22.8092 15.9668L22.6429 15.7981L22.8092 15.6319ZM23.7729 15.2416C23.7167 15.2416 23.6617 15.2582 23.6149 15.2895C23.5682 15.3207 23.5317 15.3651 23.5102 15.4171C23.4887 15.469 23.4831 15.5262 23.494 15.5813C23.505 15.6365 23.5321 15.6871 23.5719 15.7269C23.6116 15.7666 23.6623 15.7937 23.7174 15.8047C23.7726 15.8157 23.8297 15.81 23.8817 15.7885C23.9336 15.767 23.978 15.7306 24.0093 15.6838C24.0405 15.6371 24.0572 15.5821 24.0572 15.5259C24.0572 15.4505 24.0272 15.3781 23.9739 15.3248C23.9206 15.2715 23.8483 15.2416 23.7729 15.2416ZM21.8671 15.2416C21.9233 15.2416 21.9783 15.2582 22.0251 15.2895C22.0718 15.3207 22.1082 15.3651 22.1298 15.4171C22.1513 15.469 22.1569 15.5262 22.1459 15.5813C22.135 15.6365 22.1079 15.6871 22.0681 15.7269C22.0284 15.7666 21.9777 15.7937 21.9226 15.8047C21.8674 15.8157 21.8103 15.81 21.7583 15.7885C21.7064 15.767 21.662 15.7306 21.6307 15.6838C21.5995 15.6371 21.5828 15.5821 21.5828 15.5259C21.5828 15.4885 21.5902 15.4516 21.6044 15.4171C21.6187 15.3826 21.6397 15.3512 21.6661 15.3248C21.6925 15.2984 21.7238 15.2775 21.7583 15.2632C21.7928 15.2489 21.8298 15.2416 21.8671 15.2416ZM24.5029 14.8079C24.4467 14.8079 24.3917 14.8246 24.345 14.8558C24.2982 14.887 24.2618 14.9314 24.2403 14.9834C24.2187 15.0353 24.2131 15.0925 24.2241 15.1476C24.235 15.2028 24.2621 15.2534 24.3019 15.2932C24.3416 15.333 24.3923 15.36 24.4475 15.371C24.5026 15.382 24.5598 15.3764 24.6117 15.3548C24.6637 15.3333 24.7081 15.2969 24.7393 15.2501C24.7705 15.2034 24.7872 15.1484 24.7872 15.0922C24.7872 15.0168 24.7573 14.9445 24.7039 14.8911C24.6506 14.8378 24.5783 14.8079 24.5029 14.8079ZM21.1299 14.8079C21.1861 14.8079 21.241 14.8246 21.2878 14.8558C21.3346 14.887 21.371 14.9314 21.3925 14.9834C21.414 15.0353 21.4197 15.0925 21.4087 15.1476C21.3977 15.2028 21.3706 15.2534 21.3309 15.2932C21.2911 15.333 21.2405 15.36 21.1853 15.371C21.1302 15.382 21.073 15.3764 21.0211 15.3548C20.9691 15.3333 20.9247 15.2969 20.8935 15.2501C20.8622 15.2034 20.8455 15.1484 20.8455 15.0922C20.8455 15.0168 20.8755 14.9445 20.9288 14.8911C20.9821 14.8378 21.0544 14.8079 21.1299 14.8079ZM25.0474 14.1839C24.9912 14.1839 24.9362 14.2005 24.8895 14.2318C24.8427 14.263 24.8063 14.3074 24.7848 14.3594C24.7632 14.4113 24.7576 14.4685 24.7686 14.5236C24.7796 14.5788 24.8066 14.6294 24.8464 14.6692C24.8862 14.709 24.9368 14.736 24.992 14.747C25.0471 14.758 25.1043 14.7523 25.1562 14.7308C25.2082 14.7093 25.2526 14.6729 25.2838 14.6261C25.3151 14.5794 25.3317 14.5244 25.3317 14.4682C25.3317 14.3928 25.3018 14.3204 25.2485 14.2671C25.1951 14.2138 25.1228 14.1839 25.0474 14.1839ZM20.5829 14.1839C20.6392 14.1839 20.6941 14.2005 20.7409 14.2318C20.7876 14.263 20.8241 14.3074 20.8456 14.3594C20.8671 14.4113 20.8727 14.4685 20.8618 14.5236C20.8508 14.5788 20.8237 14.6294 20.784 14.6692C20.7442 14.709 20.6935 14.736 20.6384 14.747C20.5832 14.758 20.5261 14.7523 20.4741 14.7308C20.4222 14.7093 20.3778 14.6729 20.3465 14.6261C20.3153 14.5794 20.2986 14.5244 20.2986 14.4682C20.2986 14.3928 20.3286 14.3204 20.3819 14.2671C20.4352 14.2138 20.5075 14.1839 20.5829 14.1839ZM22.2695 11.2469C22.2593 11.2156 22.2617 11.1815 22.2761 11.1519C22.2904 11.1223 22.3157 11.0993 22.3466 11.0879C22.3773 11.0777 22.4107 11.0798 22.4399 11.0937C22.4691 11.1076 22.4918 11.1323 22.5032 11.1626C22.5153 11.19 22.5332 11.2146 22.5557 11.2345C22.5781 11.2545 22.6046 11.2694 22.6333 11.2782C22.6962 11.3033 22.7631 11.3172 22.8308 11.3192C22.9012 11.3213 22.9714 11.3107 23.038 11.2878C23.0728 11.2785 23.1053 11.2622 23.1335 11.2398C23.1617 11.2174 23.1849 11.1895 23.2019 11.1577C23.2073 11.1418 23.2159 11.1271 23.2272 11.1146C23.2385 11.1022 23.2522 11.0921 23.2675 11.0852C23.2829 11.0782 23.2995 11.0745 23.3163 11.0742C23.3331 11.074 23.3498 11.0771 23.3654 11.0836C23.3809 11.09 23.395 11.0996 23.4067 11.1117C23.4184 11.1238 23.4274 11.1382 23.4333 11.154C23.4392 11.1697 23.4419 11.1865 23.441 11.2034C23.4401 11.2202 23.4358 11.2366 23.4284 11.2517C23.399 11.316 23.3563 11.3732 23.3032 11.4198C23.25 11.4663 23.1875 11.501 23.12 11.5215C23.0253 11.5531 22.9258 11.5678 22.826 11.5649C22.7269 11.5634 22.629 11.5438 22.5369 11.5071C22.4766 11.4848 22.4217 11.4501 22.3756 11.4053C22.3296 11.3605 22.2934 11.3065 22.2695 11.2469ZM24.1463 9.07848L24.0114 9.24714C23.9871 9.27135 23.9547 9.28575 23.9204 9.2876C23.8861 9.28945 23.8524 9.27863 23.8256 9.25718C23.7988 9.23574 23.7808 9.20518 23.7751 9.17133C23.7694 9.13749 23.7763 9.10272 23.7946 9.07366L23.8837 8.96284C23.8597 8.9404 23.8444 8.91024 23.8404 8.87764C23.8365 8.84503 23.8441 8.81207 23.862 8.78454C23.883 8.75453 23.9148 8.73377 23.9507 8.72659C23.9866 8.71941 24.0239 8.72636 24.0548 8.746C24.1806 8.81498 24.3235 8.84673 24.4668 8.83755C24.6163 8.83929 24.7635 8.80102 24.8932 8.72672C24.9243 8.70768 24.9617 8.70156 24.9972 8.70966C25.0328 8.71776 25.0638 8.73945 25.0836 8.77009C25.1029 8.80025 25.1097 8.83679 25.1025 8.8719C25.0953 8.90701 25.0747 8.93792 25.045 8.95802L25.1438 9.06644C25.1585 9.0794 25.1703 9.09531 25.1784 9.11312C25.1865 9.13094 25.1908 9.15026 25.191 9.16984C25.1912 9.18943 25.1873 9.20883 25.1795 9.22679C25.1717 9.24476 25.1602 9.26088 25.1458 9.27412C25.1313 9.28736 25.1143 9.29742 25.0957 9.30365C25.0771 9.30988 25.0575 9.31213 25.038 9.31027C25.0185 9.30841 24.9996 9.30247 24.9826 9.29284C24.9655 9.28321 24.9507 9.2701 24.939 9.25436L24.7752 9.07366L24.6162 9.10258V9.264C24.6117 9.2976 24.5952 9.32844 24.5697 9.35078C24.5442 9.37312 24.5115 9.38543 24.4776 9.38543C24.4437 9.38543 24.411 9.37312 24.3855 9.35078C24.36 9.32844 24.3435 9.2976 24.3391 9.264V9.10981C24.2743 9.1031 24.2099 9.09264 24.1463 9.07848ZM20.9034 9.07848L20.7684 9.24473C20.7574 9.25906 20.7436 9.27102 20.7278 9.27991C20.712 9.28879 20.6947 9.29441 20.6767 9.29643C20.6587 9.29846 20.6405 9.29684 20.6231 9.29168C20.6058 9.28653 20.5897 9.27793 20.5757 9.26641C20.5613 9.25514 20.5493 9.24111 20.5404 9.22514C20.5315 9.20917 20.5258 9.19157 20.5238 9.1734C20.5218 9.15522 20.5234 9.13682 20.5286 9.11928C20.5338 9.10174 20.5424 9.08541 20.554 9.07126L20.6383 8.96524C20.6115 8.94385 20.5937 8.91319 20.5883 8.8793C20.583 8.84542 20.5905 8.81075 20.6094 8.78214C20.6304 8.75212 20.6622 8.73136 20.6981 8.72418C20.734 8.717 20.7713 8.72395 20.8022 8.74359C20.9247 8.81247 21.0641 8.84585 21.2045 8.83996H21.2648C21.4053 8.83597 21.5429 8.7997 21.6671 8.73395C21.683 8.7243 21.7005 8.71786 21.7188 8.715C21.7371 8.71214 21.7558 8.71291 21.7738 8.71727C21.7918 8.72163 21.8088 8.7295 21.8238 8.74042C21.8388 8.75135 21.8514 8.76511 21.8611 8.78093C21.8707 8.79675 21.8772 8.81432 21.88 8.83262C21.8829 8.85093 21.8821 8.86963 21.8778 8.88764C21.8734 8.90565 21.8655 8.92262 21.8546 8.93759C21.8437 8.95256 21.8299 8.96523 21.8141 8.97488L21.9032 9.07126C21.9289 9.09776 21.9432 9.13318 21.9432 9.17004C21.9432 9.2069 21.9289 9.24232 21.9032 9.26882C21.8771 9.29428 21.8421 9.30853 21.8057 9.30853C21.7692 9.30853 21.7342 9.29428 21.7081 9.26882L21.5491 9.09535C21.4961 9.09535 21.4407 9.11703 21.3852 9.12426V9.27846C21.3808 9.31206 21.3643 9.3429 21.3388 9.36524C21.3133 9.38757 21.2806 9.39989 21.2467 9.39989C21.2128 9.39989 21.1801 9.38757 21.1546 9.36524C21.1291 9.3429 21.1126 9.31206 21.1082 9.27846V9.12908C21.0423 9.12315 20.977 9.11187 20.913 9.09535L20.9034 9.07848ZM24.0355 8.2569C24.0054 8.27763 23.9683 8.28571 23.9322 8.2794C23.8962 8.2731 23.8641 8.25291 23.8428 8.22317C23.8222 8.1934 23.8141 8.15671 23.8205 8.12106C23.8268 8.08542 23.8469 8.05371 23.8765 8.03283C24.0855 7.87736 24.3388 7.79293 24.5993 7.7919C24.8641 7.79367 25.1218 7.87788 25.3365 8.03283C25.3514 8.04312 25.3641 8.05623 25.3739 8.07142C25.3837 8.08661 25.3904 8.10358 25.3937 8.12137C25.3969 8.13916 25.3966 8.15741 25.3928 8.17508C25.389 8.19275 25.3818 8.2095 25.3715 8.22437C25.3612 8.23925 25.3481 8.25195 25.3329 8.26175C25.3177 8.27155 25.3007 8.27827 25.2829 8.28151C25.2652 8.28476 25.2469 8.28446 25.2292 8.28066C25.2116 8.27685 25.1948 8.26959 25.1799 8.25931C25.0114 8.1345 24.8089 8.06392 24.5993 8.05693C24.3957 8.06427 24.1994 8.13503 24.0379 8.25931L24.0355 8.2569ZM19.5975 9.63745C19.5108 9.32905 19.4265 9.00138 19.3566 8.69058C19.2968 8.70274 19.2403 8.72751 19.1909 8.76324C19.1414 8.79897 19.1002 8.84484 19.0699 8.89778C19.0433 8.95493 19.0349 9.01883 19.0458 9.08089C19.0585 9.16053 19.0889 9.23629 19.1349 9.30255C19.2452 9.46488 19.4089 9.58339 19.5975 9.63745ZM19.6939 8.49542L19.9975 9.72659C20.0917 10.0769 20.2068 10.4212 20.342 10.7578C20.5375 11.1211 20.7952 11.4473 21.1033 11.7215C21.4464 12.0364 21.8326 12.3009 22.2502 12.507C22.3249 12.5359 22.3972 12.5576 22.4646 12.5768C22.5336 12.5943 22.6036 12.6072 22.6742 12.6154C23.3296 12.6973 23.8524 12.3142 24.38 11.9311L24.421 11.8998C24.8499 11.5866 25.1944 11.0059 25.4618 10.3434C25.7991 9.46142 26.0226 8.54005 26.1268 7.60156C26.1304 7.56954 26.1304 7.53721 26.1268 7.50519C26.1268 7.49073 26.1268 7.48832 26.1268 7.48591H25.8136C25.7246 7.49254 25.6352 7.49254 25.5462 7.48591C25.2126 7.43265 24.8882 7.3329 24.5824 7.18957C24.2427 7.03133 23.9198 6.83922 23.6187 6.61614C23.585 6.59205 23.5199 6.54146 23.4452 6.47881C23.2838 6.3463 23.0573 6.15837 23.0501 6.15837C23.0429 6.15837 22.8718 6.33666 22.6983 6.49327C22.6053 6.58228 22.508 6.6667 22.4068 6.74625C22.0184 7.02339 21.581 7.2245 21.1178 7.33894C20.6171 7.46325 20.1008 7.51358 19.5855 7.48832L19.5975 7.72926C19.6137 7.98469 19.6499 8.23845 19.7059 8.4882L19.6939 8.49542ZM26.3509 8.69058L26.1099 9.63986C26.3 9.58607 26.4648 9.46653 26.5749 9.30255C26.6209 9.23629 26.6514 9.16053 26.6641 9.08089C26.675 9.01883 26.6665 8.95493 26.64 8.89778C26.6098 8.84427 26.5683 8.79799 26.5184 8.7622C26.4684 8.72641 26.4113 8.70197 26.3509 8.69058ZM23.9415 2.81422C24.0522 2.81374 24.1605 2.84612 24.2527 2.90725C24.345 2.96838 24.417 3.05551 24.4597 3.1576C24.5023 3.2597 24.5138 3.37216 24.4925 3.48075C24.4712 3.58933 24.4181 3.68916 24.3401 3.76757C24.262 3.84598 24.1624 3.89946 24.0539 3.92122C23.9454 3.94299 23.8329 3.93206 23.7306 3.88983C23.6283 3.84759 23.5409 3.77595 23.4794 3.68398C23.4178 3.592 23.385 3.48384 23.385 3.37318C23.385 3.29989 23.3995 3.22732 23.4276 3.15964C23.4557 3.09196 23.4969 3.0305 23.5488 2.97878C23.6008 2.92707 23.6624 2.88613 23.7302 2.8583C23.798 2.83047 23.8707 2.81631 23.944 2.81663L23.9415 2.81422ZM22.8501 2.65038C22.9569 2.65038 23.0612 2.68204 23.15 2.74134C23.2387 2.80064 23.3079 2.88493 23.3487 2.98354C23.3896 3.08216 23.4003 3.19067 23.3794 3.29536C23.3586 3.40005 23.3072 3.49622 23.2317 3.57169C23.1563 3.64717 23.0601 3.69857 22.9554 3.71939C22.8507 3.74022 22.7422 3.72953 22.6436 3.68868C22.545 3.64783 22.4607 3.57866 22.4014 3.48991C22.3421 3.40116 22.3104 3.29681 22.3104 3.19007C22.3104 3.04694 22.3673 2.90967 22.4685 2.80845C22.5697 2.70724 22.707 2.65038 22.8501 2.65038Z" fill="black"/>
</g>
<defs>
<clipPath id="clip0_189_218">
<rect width="29.6059" height="19" fill="white"/>
</clipPath>
</defs>
</svg>
